<svg xmlns="http://www.w3.org/2000/svg"  viewBox="0 0 64 64"><defs fill="#55534E" /><path  d="m16,48h4v6h-4c-4.94,0-8-3.06-8-8v-7c0-2.47-1.53-4-4-4h-2v-6h2c2.47,0,4-1.53,4-4v-7c0-4.94,3.06-8,8-8h4v6h-4c-1.23,0-2,.77-2,2v7c0,3.28-1.36,5.72-3.71,7,2.35,1.28,3.71,3.72,3.71,7v7c0,1.23.77,2,2,2Zm44-19c-2.47,0-4-1.53-4-4v-7c0-4.94-3.06-8-8-8h-4v6h4c1.23,0,2,.77,2,2v7c0,3.28,1.36,5.72,3.71,7-2.35,1.28-3.71,3.72-3.71,7v7c0,1.23-.77,2-2,2h-4v6h4c4.94,0,8-3.06,8-8v-7c0-2.47,1.53-4,4-4h2v-6h-2Zm-40-1c-2.21,0-4,1.79-4,4s1.79,4,4,4,4-1.79,4-4-1.79-4-4-4Zm28,4c0-2.21-1.79-4-4-4s-4,1.79-4,4,1.79,4,4,4,4-1.79,4-4Zm-16-4c-2.21,0-4,1.79-4,4s1.79,4,4,4,4-1.79,4-4-1.79-4-4-4Z" fill="#55534E" /></svg>